<svg width="290" height="32" viewBox="0 0 290 32" fill="none" xmlns="http://www.w3.org/2000/svg">
<path d="M12.44 31.76C9.8 31.76 7.57333 31.3467 5.76 30.52C3.94667 29.6667 2.57333 28.52 1.64 27.08C0.706667 25.6133 0.24 23.9333 0.24 22.04H6.6C6.6 22.7867 6.8 23.48 7.2 24.12C7.62667 24.76 8.26667 25.28 9.12 25.68C9.97333 26.0533 11.08 26.24 12.44 26.24C13.6667 26.24 14.6933 26.08 15.52 25.76C16.3467 25.44 16.9733 25 17.4 24.44C17.8267 23.8533 18.04 23.1867 18.04 22.44C18.04 21.5067 17.64 20.7733 16.84 20.24C16.04 19.68 14.7467 19.32 12.96 19.16L10.76 18.96C7.85333 18.72 5.53333 17.8133 3.8 16.24C2.06667 14.6667 1.2 12.5867 1.2 10C1.2 8.13333 1.64 6.52 2.52 5.16C3.42667 3.8 4.68 2.76 6.28 2.04C7.88 1.29333 9.77333 0.919999 11.96 0.919999C14.2533 0.919999 16.2133 1.32 17.84 2.12C19.4933 2.89333 20.76 4 21.64 5.44C22.52 6.85333 22.96 8.52 22.96 10.44H16.56C16.56 9.72 16.3867 9.06667 16.04 8.48C15.6933 7.86667 15.1733 7.37333 14.48 7C13.8133 6.62667 12.9733 6.44 11.96 6.44C11 6.44 10.1867 6.6 9.52 6.92C8.88 7.24 8.4 7.68 8.08 8.24C7.76 8.77333 7.6 9.36 7.6 10C7.6 10.8267 7.89333 11.5467 8.48 12.16C9.06667 12.7733 10.0267 13.1333 11.36 13.24L13.6 13.44C15.7333 13.6267 17.6133 14.0933 19.24 14.84C20.8667 15.56 22.1333 16.56 23.04 17.84C23.9733 19.0933 24.44 20.6267 24.44 22.44C24.44 24.3067 23.9467 25.9467 22.96 27.36C22 28.7467 20.6267 29.8267 18.84 30.6C17.0533 31.3733 14.92 31.76 12.44 31.76ZM38.6397 31.76C36.773 31.76 35.1197 31.44 33.6797 30.8C32.2664 30.16 31.0797 29.3067 30.1197 28.24C29.1864 27.1467 28.4664 25.9333 27.9597 24.6C27.4797 23.24 27.2397 21.8533 27.2397 20.44V19.64C27.2397 18.1733 27.4797 16.7733 27.9597 15.44C28.4664 14.08 29.1864 12.8667 30.1197 11.8C31.053 10.7333 32.213 9.89333 33.5997 9.28C35.013 8.64 36.613 8.32 38.3997 8.32C40.7464 8.32 42.7197 8.85333 44.3197 9.92C45.9464 10.96 47.1864 12.3333 48.0397 14.04C48.893 15.72 49.3197 17.56 49.3197 19.56V21.72H29.9197V18.08H45.4397L43.3597 19.76C43.3597 18.4533 43.173 17.3333 42.7997 16.4C42.4264 15.4667 41.8664 14.76 41.1197 14.28C40.3997 13.7733 39.493 13.52 38.3997 13.52C37.2797 13.52 36.333 13.7733 35.5597 14.28C34.7864 14.7867 34.1997 15.5333 33.7997 16.52C33.3997 17.48 33.1997 18.6667 33.1997 20.08C33.1997 21.3867 33.3864 22.5333 33.7597 23.52C34.133 24.48 34.7197 25.2267 35.5197 25.76C36.3197 26.2933 37.3597 26.56 38.6397 26.56C39.813 26.56 40.773 26.3333 41.5197 25.88C42.2664 25.4267 42.773 24.8667 43.0397 24.2H48.9197C48.5997 25.6667 47.973 26.9733 47.0397 28.12C46.1064 29.2667 44.933 30.16 43.5197 30.8C42.1064 31.44 40.4797 31.76 38.6397 31.76ZM53.5606 31V9.08H58.6406V18.48H58.5206C58.5206 15.3867 59.174 13 60.4806 11.32C61.814 9.64 63.734 8.8 66.2406 8.8H67.0806V14.32H65.4806C63.7206 14.32 62.3606 14.8 61.4006 15.76C60.4406 16.6933 59.9606 18.0533 59.9606 19.84V31H53.5606ZM75.2616 31L68.7016 9.08H75.3016L81.4616 31H75.2616ZM77.2616 31V25.68H83.7016V31H77.2616ZM79.6216 31L84.9416 9.08H91.1016L85.4216 31H79.6216ZM95.9288 31V9.08H102.329V31H95.9288ZM93.0088 13.8V9.08H102.329V13.8H93.0088ZM98.4088 6.92C97.2088 6.92 96.3154 6.61333 95.7288 6C95.1688 5.36 94.8888 4.56 94.8888 3.6C94.8888 2.61333 95.1688 1.81333 95.7288 1.2C96.3154 0.559998 97.2088 0.239998 98.4088 0.239998C99.6088 0.239998 100.489 0.559998 101.049 1.2C101.635 1.81333 101.929 2.61333 101.929 3.6C101.929 4.56 101.635 5.36 101.049 6C100.489 6.61333 99.6088 6.92 98.4088 6.92ZM118.088 31.76C116.195 31.76 114.541 31.4533 113.128 30.84C111.741 30.2 110.581 29.3467 109.648 28.28C108.715 27.2133 108.021 26.0133 107.568 24.68C107.115 23.32 106.888 21.92 106.888 20.48V19.72C106.888 18.2267 107.128 16.8 107.608 15.44C108.088 14.0533 108.795 12.8267 109.728 11.76C110.661 10.6933 111.821 9.85333 113.208 9.24C114.621 8.62667 116.235 8.32 118.048 8.32C120.021 8.32 121.768 8.70667 123.288 9.48C124.808 10.2267 126.021 11.28 126.928 12.64C127.835 14 128.341 15.56 128.448 17.32H122.168C122.061 16.3333 121.661 15.5067 120.968 14.84C120.301 14.1467 119.328 13.8 118.048 13.8C116.981 13.8 116.088 14.0667 115.368 14.6C114.675 15.1333 114.155 15.8667 113.808 16.8C113.461 17.7333 113.288 18.84 113.288 20.12C113.288 21.2933 113.448 22.36 113.768 23.32C114.088 24.2533 114.595 24.9867 115.288 25.52C116.008 26.0267 116.941 26.28 118.088 26.28C118.941 26.28 119.661 26.1333 120.248 25.84C120.861 25.52 121.341 25.0933 121.688 24.56C122.061 24 122.288 23.36 122.368 22.64H128.608C128.528 24.4533 128.021 26.0533 127.088 27.44C126.155 28.8 124.915 29.8667 123.368 30.64C121.821 31.3867 120.061 31.76 118.088 31.76ZM133.741 31V9.08H140.141V31H133.741ZM130.821 13.8V9.08H140.141V13.8H130.821ZM136.221 6.92C135.021 6.92 134.128 6.61333 133.541 6C132.981 5.36 132.701 4.56 132.701 3.6C132.701 2.61333 132.981 1.81333 133.541 1.2C134.128 0.559998 135.021 0.239998 136.221 0.239998C137.421 0.239998 138.301 0.559998 138.861 1.2C139.448 1.81333 139.741 2.61333 139.741 3.6C139.741 4.56 139.448 5.36 138.861 6C138.301 6.61333 137.421 6.92 136.221 6.92ZM156.741 31.76C154.821 31.76 153.114 31.4667 151.621 30.88C150.127 30.2667 148.861 29.44 147.821 28.4C146.807 27.36 146.034 26.1733 145.501 24.84C144.967 23.48 144.701 22.0533 144.701 20.56V19.64C144.701 18.12 144.967 16.68 145.501 15.32C146.061 13.9333 146.861 12.72 147.901 11.68C148.967 10.64 150.247 9.82667 151.741 9.24C153.234 8.62667 154.901 8.32 156.741 8.32C158.634 8.32 160.314 8.62667 161.781 9.24C163.274 9.82667 164.541 10.64 165.581 11.68C166.621 12.72 167.421 13.9333 167.981 15.32C168.541 16.68 168.821 18.12 168.821 19.64V20.56C168.821 22.0533 168.554 23.48 168.021 24.84C167.487 26.1733 166.701 27.36 165.661 28.4C164.647 29.44 163.394 30.2667 161.901 30.88C160.407 31.4667 158.687 31.76 156.741 31.76ZM156.741 26.36C157.994 26.36 159.034 26.0933 159.861 25.56C160.687 25.0267 161.314 24.28 161.741 23.32C162.194 22.36 162.421 21.2933 162.421 20.12C162.421 18.8667 162.194 17.7733 161.741 16.84C161.287 15.88 160.634 15.12 159.781 14.56C158.954 14 157.941 13.72 156.741 13.72C155.567 13.72 154.554 14 153.701 14.56C152.847 15.12 152.194 15.88 151.741 16.84C151.314 17.7733 151.101 18.8667 151.101 20.12C151.101 21.2933 151.314 22.36 151.741 23.32C152.167 24.28 152.807 25.0267 153.661 25.56C154.514 26.0933 155.541 26.36 156.741 26.36ZM181.607 31.68C178.487 31.68 176.047 31.04 174.287 29.76C172.527 28.48 171.594 26.68 171.487 24.36H177.167C177.274 25.0533 177.687 25.68 178.407 26.24C179.154 26.7733 180.261 27.04 181.727 27.04C182.847 27.04 183.767 26.8533 184.487 26.48C185.234 26.08 185.607 25.52 185.607 24.8C185.607 24.16 185.327 23.6533 184.767 23.28C184.207 22.88 183.207 22.6 181.767 22.44L180.047 22.28C177.407 22.0133 175.421 21.28 174.087 20.08C172.781 18.88 172.127 17.3467 172.127 15.48C172.127 13.9333 172.514 12.64 173.287 11.6C174.061 10.56 175.127 9.77333 176.487 9.24C177.874 8.70667 179.447 8.44 181.207 8.44C184.034 8.44 186.314 9.06667 188.047 10.32C189.781 11.5467 190.687 13.3333 190.767 15.68H185.087C184.981 14.96 184.607 14.36 183.967 13.88C183.327 13.3733 182.381 13.12 181.127 13.12C180.141 13.12 179.354 13.3067 178.767 13.68C178.181 14.0533 177.887 14.56 177.887 15.2C177.887 15.8133 178.141 16.28 178.647 16.6C179.154 16.92 179.981 17.1467 181.127 17.28L182.847 17.44C185.541 17.7333 187.634 18.48 189.127 19.68C190.621 20.88 191.367 22.4933 191.367 24.52C191.367 25.9867 190.967 27.2667 190.167 28.36C189.367 29.4267 188.234 30.2533 186.767 30.84C185.301 31.4 183.581 31.68 181.607 31.68Z" fill="#0E76A8"/>
<path d="M209.274 31.76C206.634 31.76 204.367 31.3067 202.474 30.4C200.58 29.4667 199.034 28.2533 197.834 26.76C196.634 25.24 195.74 23.6133 195.154 21.88C194.594 20.12 194.314 18.4133 194.314 16.76V15.88C194.314 14.0667 194.607 12.28 195.194 10.52C195.78 8.73333 196.674 7.12 197.874 5.68C199.1 4.24 200.634 3.09333 202.474 2.24C204.34 1.36 206.54 0.919999 209.074 0.919999C211.714 0.919999 214.047 1.41333 216.074 2.4C218.1 3.38667 219.714 4.76 220.914 6.52C222.14 8.25333 222.86 10.2933 223.074 12.64H216.474C216.287 11.4667 215.86 10.4667 215.194 9.64C214.527 8.81333 213.66 8.17333 212.594 7.72C211.554 7.26667 210.38 7.04 209.074 7.04C207.767 7.04 206.607 7.26667 205.594 7.72C204.58 8.17333 203.727 8.81333 203.034 9.64C202.367 10.4667 201.847 11.4533 201.474 12.6C201.127 13.72 200.954 14.9733 200.954 16.36C200.954 17.72 201.127 18.9733 201.474 20.12C201.847 21.24 202.38 22.2267 203.074 23.08C203.794 23.9067 204.674 24.5467 205.714 25C206.754 25.4267 207.94 25.64 209.274 25.64C211.3 25.64 213.007 25.1467 214.394 24.16C215.807 23.1733 216.66 21.8133 216.954 20.08H223.514C223.274 22.2133 222.554 24.1733 221.354 25.96C220.18 27.72 218.567 29.1333 216.514 30.2C214.487 31.24 212.074 31.76 209.274 31.76ZM227.786 31V1.8H234.226V31H227.786ZM225.186 6.52V1.8H234.226V6.52H225.186ZM247.523 31.68C244.99 31.68 243.043 30.8667 241.683 29.24C240.323 27.5867 239.643 25.1067 239.643 21.8V9.08H246.043V22.12C246.043 23.2933 246.376 24.2267 247.043 24.92C247.71 25.6133 248.603 25.96 249.723 25.96C250.87 25.96 251.803 25.6 252.523 24.88C253.243 24.16 253.603 23.1867 253.603 21.96V9.08H260.003V31H254.923V21.76H255.363C255.363 23.9733 255.07 25.8267 254.483 27.32C253.923 28.7867 253.083 29.88 251.963 30.6C250.843 31.32 249.456 31.68 247.803 31.68H247.523ZM279.384 31.72C277.598 31.72 276.024 31.3467 274.664 30.6C273.304 29.8267 272.238 28.72 271.464 27.28C270.691 25.84 270.278 24.08 270.224 22H270.984V31H265.904V1.8H272.304V16.64L270.784 18.56C270.864 16.3467 271.278 14.4933 272.024 13C272.798 11.48 273.851 10.3467 275.184 9.6C276.518 8.82667 278.038 8.44 279.744 8.44C281.238 8.44 282.584 8.72 283.784 9.28C285.011 9.81333 286.051 10.5867 286.904 11.6C287.758 12.5867 288.411 13.76 288.864 15.12C289.344 16.48 289.584 17.96 289.584 19.56V20.44C289.584 22.04 289.344 23.52 288.864 24.88C288.411 26.24 287.731 27.44 286.824 28.48C285.944 29.4933 284.878 30.2933 283.624 30.88C282.371 31.44 280.958 31.72 279.384 31.72ZM277.704 26.36C278.798 26.36 279.744 26.0933 280.544 25.56C281.371 25.0267 282.011 24.28 282.464 23.32C282.918 22.3333 283.144 21.2267 283.144 20C283.144 18.7467 282.918 17.6533 282.464 16.72C282.011 15.7867 281.371 15.0667 280.544 14.56C279.744 14.0267 278.798 13.76 277.704 13.76C276.744 13.76 275.838 13.9867 274.984 14.44C274.131 14.8933 273.438 15.5467 272.904 16.4C272.398 17.2267 272.144 18.24 272.144 19.44V20.92C272.144 22.0667 272.411 23.0533 272.944 23.88C273.504 24.68 274.211 25.2933 275.064 25.72C275.918 26.1467 276.798 26.36 277.704 26.36Z" fill="white" fill-opacity="0.9"/>
</svg>
