<svg width="290" height="33" viewBox="0 0 290 33" fill="none" xmlns="http://www.w3.org/2000/svg">
<path d="M12.44 32.26C9.8 32.26 7.57333 31.8467 5.76 31.02C3.94667 30.1667 2.57333 29.02 1.64 27.58C0.706667 26.1133 0.24 24.4333 0.24 22.54H6.6C6.6 23.2867 6.8 23.98 7.2 24.62C7.62667 25.26 8.26667 25.78 9.12 26.18C9.97333 26.5533 11.08 26.74 12.44 26.74C13.6667 26.74 14.6933 26.58 15.52 26.26C16.3467 25.94 16.9733 25.5 17.4 24.94C17.8267 24.3533 18.04 23.6867 18.04 22.94C18.04 22.0067 17.64 21.2733 16.84 20.74C16.04 20.18 14.7467 19.82 12.96 19.66L10.76 19.46C7.85333 19.22 5.53333 18.3133 3.8 16.74C2.06667 15.1667 1.2 13.0867 1.2 10.5C1.2 8.63333 1.64 7.02 2.52 5.66C3.42667 4.3 4.68 3.26 6.28 2.54C7.88 1.79333 9.77333 1.42 11.96 1.42C14.2533 1.42 16.2133 1.82 17.84 2.62C19.4933 3.39333 20.76 4.5 21.64 5.94C22.52 7.35333 22.96 9.02 22.96 10.94H16.56C16.56 10.22 16.3867 9.56667 16.04 8.98C15.6933 8.36667 15.1733 7.87333 14.48 7.5C13.8133 7.12667 12.9733 6.94 11.96 6.94C11 6.94 10.1867 7.1 9.52 7.42C8.88 7.74 8.4 8.18 8.08 8.74C7.76 9.27333 7.6 9.86 7.6 10.5C7.6 11.3267 7.89333 12.0467 8.48 12.66C9.06667 13.2733 10.0267 13.6333 11.36 13.74L13.6 13.94C15.7333 14.1267 17.6133 14.5933 19.24 15.34C20.8667 16.06 22.1333 17.06 23.04 18.34C23.9733 19.5933 24.44 21.1267 24.44 22.94C24.44 24.8067 23.9467 26.4467 22.96 27.86C22 29.2467 20.6267 30.3267 18.84 31.1C17.0533 31.8733 14.92 32.26 12.44 32.26ZM38.6397 32.26C36.773 32.26 35.1197 31.94 33.6797 31.3C32.2664 30.66 31.0797 29.8067 30.1197 28.74C29.1864 27.6467 28.4664 26.4333 27.9597 25.1C27.4797 23.74 27.2397 22.3533 27.2397 20.94V20.14C27.2397 18.6733 27.4797 17.2733 27.9597 15.94C28.4664 14.58 29.1864 13.3667 30.1197 12.3C31.053 11.2333 32.213 10.3933 33.5997 9.78C35.013 9.14 36.613 8.82 38.3997 8.82C40.7464 8.82 42.7197 9.35333 44.3197 10.42C45.9464 11.46 47.1864 12.8333 48.0397 14.54C48.893 16.22 49.3197 18.06 49.3197 20.06V22.22H29.9197V18.58H45.4397L43.3597 20.26C43.3597 18.9533 43.173 17.8333 42.7997 16.9C42.4264 15.9667 41.8664 15.26 41.1197 14.78C40.3997 14.2733 39.493 14.02 38.3997 14.02C37.2797 14.02 36.333 14.2733 35.5597 14.78C34.7864 15.2867 34.1997 16.0333 33.7997 17.02C33.3997 17.98 33.1997 19.1667 33.1997 20.58C33.1997 21.8867 33.3864 23.0333 33.7597 24.02C34.133 24.98 34.7197 25.7267 35.5197 26.26C36.3197 26.7933 37.3597 27.06 38.6397 27.06C39.813 27.06 40.773 26.8333 41.5197 26.38C42.2664 25.9267 42.773 25.3667 43.0397 24.7H48.9197C48.5997 26.1667 47.973 27.4733 47.0397 28.62C46.1064 29.7667 44.933 30.66 43.5197 31.3C42.1064 31.94 40.4797 32.26 38.6397 32.26ZM53.5606 31.5V9.58H58.6406V18.98H58.5206C58.5206 15.8867 59.174 13.5 60.4806 11.82C61.814 10.14 63.734 9.3 66.2406 9.3H67.0806V14.82H65.4806C63.7206 14.82 62.3606 15.3 61.4006 16.26C60.4406 17.1933 59.9606 18.5533 59.9606 20.34V31.5H53.5606ZM75.2616 31.5L68.7016 9.58H75.3016L81.4616 31.5H75.2616ZM77.2616 31.5V26.18H83.7016V31.5H77.2616ZM79.6216 31.5L84.9416 9.58H91.1016L85.4216 31.5H79.6216ZM95.9288 31.5V9.58H102.329V31.5H95.9288ZM93.0088 14.3V9.58H102.329V14.3H93.0088ZM98.4088 7.42C97.2088 7.42 96.3154 7.11333 95.7288 6.5C95.1688 5.86 94.8888 5.06 94.8888 4.1C94.8888 3.11333 95.1688 2.31333 95.7288 1.7C96.3154 1.06 97.2088 0.739998 98.4088 0.739998C99.6088 0.739998 100.489 1.06 101.049 1.7C101.635 2.31333 101.929 3.11333 101.929 4.1C101.929 5.06 101.635 5.86 101.049 6.5C100.489 7.11333 99.6088 7.42 98.4088 7.42ZM118.088 32.26C116.195 32.26 114.541 31.9533 113.128 31.34C111.741 30.7 110.581 29.8467 109.648 28.78C108.715 27.7133 108.021 26.5133 107.568 25.18C107.115 23.82 106.888 22.42 106.888 20.98V20.22C106.888 18.7267 107.128 17.3 107.608 15.94C108.088 14.5533 108.795 13.3267 109.728 12.26C110.661 11.1933 111.821 10.3533 113.208 9.74C114.621 9.12667 116.235 8.82 118.048 8.82C120.021 8.82 121.768 9.20667 123.288 9.98C124.808 10.7267 126.021 11.78 126.928 13.14C127.835 14.5 128.341 16.06 128.448 17.82H122.168C122.061 16.8333 121.661 16.0067 120.968 15.34C120.301 14.6467 119.328 14.3 118.048 14.3C116.981 14.3 116.088 14.5667 115.368 15.1C114.675 15.6333 114.155 16.3667 113.808 17.3C113.461 18.2333 113.288 19.34 113.288 20.62C113.288 21.7933 113.448 22.86 113.768 23.82C114.088 24.7533 114.595 25.4867 115.288 26.02C116.008 26.5267 116.941 26.78 118.088 26.78C118.941 26.78 119.661 26.6333 120.248 26.34C120.861 26.02 121.341 25.5933 121.688 25.06C122.061 24.5 122.288 23.86 122.368 23.14H128.608C128.528 24.9533 128.021 26.5533 127.088 27.94C126.155 29.3 124.915 30.3667 123.368 31.14C121.821 31.8867 120.061 32.26 118.088 32.26ZM133.741 31.5V9.58H140.141V31.5H133.741ZM130.821 14.3V9.58H140.141V14.3H130.821ZM136.221 7.42C135.021 7.42 134.128 7.11333 133.541 6.5C132.981 5.86 132.701 5.06 132.701 4.1C132.701 3.11333 132.981 2.31333 133.541 1.7C134.128 1.06 135.021 0.739998 136.221 0.739998C137.421 0.739998 138.301 1.06 138.861 1.7C139.448 2.31333 139.741 3.11333 139.741 4.1C139.741 5.06 139.448 5.86 138.861 6.5C138.301 7.11333 137.421 7.42 136.221 7.42ZM156.741 32.26C154.821 32.26 153.114 31.9667 151.621 31.38C150.127 30.7667 148.861 29.94 147.821 28.9C146.807 27.86 146.034 26.6733 145.501 25.34C144.967 23.98 144.701 22.5533 144.701 21.06V20.14C144.701 18.62 144.967 17.18 145.501 15.82C146.061 14.4333 146.861 13.22 147.901 12.18C148.967 11.14 150.247 10.3267 151.741 9.74C153.234 9.12667 154.901 8.82 156.741 8.82C158.634 8.82 160.314 9.12667 161.781 9.74C163.274 10.3267 164.541 11.14 165.581 12.18C166.621 13.22 167.421 14.4333 167.981 15.82C168.541 17.18 168.821 18.62 168.821 20.14V21.06C168.821 22.5533 168.554 23.98 168.021 25.34C167.487 26.6733 166.701 27.86 165.661 28.9C164.647 29.94 163.394 30.7667 161.901 31.38C160.407 31.9667 158.687 32.26 156.741 32.26ZM156.741 26.86C157.994 26.86 159.034 26.5933 159.861 26.06C160.687 25.5267 161.314 24.78 161.741 23.82C162.194 22.86 162.421 21.7933 162.421 20.62C162.421 19.3667 162.194 18.2733 161.741 17.34C161.287 16.38 160.634 15.62 159.781 15.06C158.954 14.5 157.941 14.22 156.741 14.22C155.567 14.22 154.554 14.5 153.701 15.06C152.847 15.62 152.194 16.38 151.741 17.34C151.314 18.2733 151.101 19.3667 151.101 20.62C151.101 21.7933 151.314 22.86 151.741 23.82C152.167 24.78 152.807 25.5267 153.661 26.06C154.514 26.5933 155.541 26.86 156.741 26.86ZM181.607 32.18C178.487 32.18 176.047 31.54 174.287 30.26C172.527 28.98 171.594 27.18 171.487 24.86H177.167C177.274 25.5533 177.687 26.18 178.407 26.74C179.154 27.2733 180.261 27.54 181.727 27.54C182.847 27.54 183.767 27.3533 184.487 26.98C185.234 26.58 185.607 26.02 185.607 25.3C185.607 24.66 185.327 24.1533 184.767 23.78C184.207 23.38 183.207 23.1 181.767 22.94L180.047 22.78C177.407 22.5133 175.421 21.78 174.087 20.58C172.781 19.38 172.127 17.8467 172.127 15.98C172.127 14.4333 172.514 13.14 173.287 12.1C174.061 11.06 175.127 10.2733 176.487 9.74C177.874 9.20667 179.447 8.94 181.207 8.94C184.034 8.94 186.314 9.56667 188.047 10.82C189.781 12.0467 190.687 13.8333 190.767 16.18H185.087C184.981 15.46 184.607 14.86 183.967 14.38C183.327 13.8733 182.381 13.62 181.127 13.62C180.141 13.62 179.354 13.8067 178.767 14.18C178.181 14.5533 177.887 15.06 177.887 15.7C177.887 16.3133 178.141 16.78 178.647 17.1C179.154 17.42 179.981 17.6467 181.127 17.78L182.847 17.94C185.541 18.2333 187.634 18.98 189.127 20.18C190.621 21.38 191.367 22.9933 191.367 25.02C191.367 26.4867 190.967 27.7667 190.167 28.86C189.367 29.9267 188.234 30.7533 186.767 31.34C185.301 31.9 183.581 32.18 181.607 32.18Z" fill="#55C880"/>
<path d="M209.274 32.26C206.634 32.26 204.367 31.8067 202.474 30.9C200.58 29.9667 199.034 28.7533 197.834 27.26C196.634 25.74 195.74 24.1133 195.154 22.38C194.594 20.62 194.314 18.9133 194.314 17.26V16.38C194.314 14.5667 194.607 12.78 195.194 11.02C195.78 9.23333 196.674 7.62 197.874 6.18C199.1 4.74 200.634 3.59333 202.474 2.74C204.34 1.86 206.54 1.42 209.074 1.42C211.714 1.42 214.047 1.91333 216.074 2.9C218.1 3.88667 219.714 5.26 220.914 7.02C222.14 8.75333 222.86 10.7933 223.074 13.14H216.474C216.287 11.9667 215.86 10.9667 215.194 10.14C214.527 9.31333 213.66 8.67333 212.594 8.22C211.554 7.76667 210.38 7.54 209.074 7.54C207.767 7.54 206.607 7.76667 205.594 8.22C204.58 8.67333 203.727 9.31333 203.034 10.14C202.367 10.9667 201.847 11.9533 201.474 13.1C201.127 14.22 200.954 15.4733 200.954 16.86C200.954 18.22 201.127 19.4733 201.474 20.62C201.847 21.74 202.38 22.7267 203.074 23.58C203.794 24.4067 204.674 25.0467 205.714 25.5C206.754 25.9267 207.94 26.14 209.274 26.14C211.3 26.14 213.007 25.6467 214.394 24.66C215.807 23.6733 216.66 22.3133 216.954 20.58H223.514C223.274 22.7133 222.554 24.6733 221.354 26.46C220.18 28.22 218.567 29.6333 216.514 30.7C214.487 31.74 212.074 32.26 209.274 32.26ZM227.786 31.5V2.3H234.226V31.5H227.786ZM225.186 7.02V2.3H234.226V7.02H225.186ZM247.523 32.18C244.99 32.18 243.043 31.3667 241.683 29.74C240.323 28.0867 239.643 25.6067 239.643 22.3V9.58H246.043V22.62C246.043 23.7933 246.376 24.7267 247.043 25.42C247.71 26.1133 248.603 26.46 249.723 26.46C250.87 26.46 251.803 26.1 252.523 25.38C253.243 24.66 253.603 23.6867 253.603 22.46V9.58H260.003V31.5H254.923V22.26H255.363C255.363 24.4733 255.07 26.3267 254.483 27.82C253.923 29.2867 253.083 30.38 251.963 31.1C250.843 31.82 249.456 32.18 247.803 32.18H247.523ZM279.384 32.22C277.598 32.22 276.024 31.8467 274.664 31.1C273.304 30.3267 272.238 29.22 271.464 27.78C270.691 26.34 270.278 24.58 270.224 22.5H270.984V31.5H265.904V2.3H272.304V17.14L270.784 19.06C270.864 16.8467 271.278 14.9933 272.024 13.5C272.798 11.98 273.851 10.8467 275.184 10.1C276.518 9.32667 278.038 8.94 279.744 8.94C281.238 8.94 282.584 9.22 283.784 9.78C285.011 10.3133 286.051 11.0867 286.904 12.1C287.758 13.0867 288.411 14.26 288.864 15.62C289.344 16.98 289.584 18.46 289.584 20.06V20.94C289.584 22.54 289.344 24.02 288.864 25.38C288.411 26.74 287.731 27.94 286.824 28.98C285.944 29.9933 284.878 30.7933 283.624 31.38C282.371 31.94 280.958 32.22 279.384 32.22ZM277.704 26.86C278.798 26.86 279.744 26.5933 280.544 26.06C281.371 25.5267 282.011 24.78 282.464 23.82C282.918 22.8333 283.144 21.7267 283.144 20.5C283.144 19.2467 282.918 18.1533 282.464 17.22C282.011 16.2867 281.371 15.5667 280.544 15.06C279.744 14.5267 278.798 14.26 277.704 14.26C276.744 14.26 275.838 14.4867 274.984 14.94C274.131 15.3933 273.438 16.0467 272.904 16.9C272.398 17.7267 272.144 18.74 272.144 19.94V21.42C272.144 22.5667 272.411 23.5533 272.944 24.38C273.504 25.18 274.211 25.7933 275.064 26.22C275.918 26.6467 276.798 26.86 277.704 26.86Z" fill="white" fill-opacity="0.9"/>
</svg>
